# xmcd
#
# Track frame offsets: 
#        225
#        15137
#        32568
#        46881
#        60503
#        73786
#        92417
#        109713
#        122589
#        138627
#        155762
#        168157
#        183855
#
# Disc length: 2645 seconds
#
# Revision: 1
# Processed by: cddbd v1.5.2PL0 Copyright (c) Steve Scherf et al.
# Submitted via: ExactAudioCopy v0.99pb3
#
DISCID=9d0a520d
DTITLE=Sean Costello - Moanin' For Molasses
DYEAR=2001
DGENRE=Blues
TTITLE0=Moanin' For Molasses 
TTITLE1=You're Killing My Love
TTITLE2=Don't Be Reckless With My Heart
TTITLE3=You're A Part Of Me
TTITLE4=One Kiss
TTITLE5=No Lie
TTITLE6=The Plumber
TTITLE7=I Want You So Bad
TTITLE8=It Takes Time
TTITLE9=Miles Away
TTITLE10=Low-Life Blues
TTITLE11=You Can't Win With A Losing Hand
TTITLE12=Good Advice
EXTD=
EXTT0=
EXTT1=
EXTT2=
EXTT3=
EXTT4=
EXTT5=
EXTT6=
EXTT7=
EXTT8=
EXTT9=
EXTT10=
EXTT11=
EXTT12=
PLAYORDER=
